<svg xmlns="http://www.w3.org/2000/svg" version="1.1" xmlns:xlink="http://www.w3.org/1999/xlink" xmlns:svgjs="http://svgjs.dev/svgjs" width="1000" height="1125" viewBox="0 0 1000 1125"><g transform="matrix(1,0,0,1,0,0)"><svg viewBox="0 0 320 360" data-background-color="#ffffff" preserveAspectRatio="xMidYMid meet" height="1125" width="1000" xmlns="http://www.w3.org/2000/svg" xmlns:xlink="http://www.w3.org/1999/xlink"><g id="tight-bounds" transform="matrix(1,0,0,1,0,0)"><svg viewBox="0 0 320 360" height="360" width="320"><g><svg></svg></g><g><svg viewBox="0 0 320 360" height="360" width="320"><g><path xmlns="http://www.w3.org/2000/svg" d="M39.474 120.804l2.852-5.236c22.696-41.686 66.871-69.977 117.674-69.972 50.817 0 95.006 28.305 117.697 70.005l2.852 5.241 8.173-31.337 31.03 7.961-2.654-4.792c-30.586-55.251-89.468-92.674-157.098-92.674-67.631 0-126.508 37.423-157.103 92.674l-2.654 4.787 31.063-7.956zM160 4.721c63.839 0 119.567 34.288 150.073 85.389l-24.731-6.341-6.417 24.608c-24.217-40.411-68.381-67.503-118.925-67.503-50.525 0-94.68 27.078-118.897 67.465l-6.412-24.575-24.764 6.341c30.506-51.101 86.238-85.384 150.073-85.384zM280.526 239.191l-2.852 5.236c-22.696 41.691-66.871 69.977-117.674 69.977-50.817 0-95.006-28.301-117.697-70.005l-2.852-5.236-8.173 31.332-31.035-7.961 2.654 4.792c30.591 55.246 89.468 92.674 157.103 92.674 67.631 0 126.513-37.427 157.103-92.674l2.654-4.787-31.063 7.956zM160 355.279c-63.839 0-119.567-34.288-150.073-85.389l24.727 6.346 6.421-24.609c24.217 40.402 68.381 67.499 118.925 67.499 50.529 0 94.68-27.078 118.901-67.47l6.408 24.575 24.764-6.341c-30.506 51.096-86.233 85.388-150.073 85.388z" fill="#093d65" fill-rule="nonzero" stroke="none" stroke-width="1" stroke-linecap="butt" stroke-linejoin="miter" stroke-miterlimit="10" stroke-dasharray="" stroke-dashoffset="0" font-family="none" font-weight="none" font-size="none" text-anchor="none" style="mix-blend-mode: normal" data-fill-palette-color="tertiary"></path></g><g transform="matrix(1,0,0,1,64,116.57142857142856)"><svg viewBox="0 0 192 126.85714285714288" height="126.85714285714288" width="192"><g><svg viewBox="0 0 192 126.85714285714288" height="126.85714285714288" width="192"><g><svg viewBox="0 0 192 126.85714285714288" height="126.85714285714288" width="192"><g><svg viewBox="0 0 192 126.85714285714288" height="126.85714285714288" width="192"><g><svg viewBox="0 0 192 126.85714285714288" height="126.85714285714288" width="192"><g transform="matrix(1,0,0,1,0,0)"><svg width="192" viewBox="3.8499999046325684 -36.79999923706055 56 37" height="126.85714285714288" data-palette-color="#093d65"><path d="M11.65 0.2L11.65 0.2Q10.45 0.2 9.1-0.03 7.75-0.25 6.55-0.95 5.35-1.65 4.6-3.08 3.85-4.5 3.85-6.95L3.85-6.95 3.85-29.4Q3.85-31.55 4.48-32.98 5.1-34.4 6.15-35.23 7.2-36.05 8.5-36.43 9.8-36.8 11.1-36.8L11.1-36.8Q14.2-36.75 16.85-36.68 19.5-36.6 21.88-36.52 24.25-36.45 26.5-36.35L26.5-36.35 26.5-33.15 12.1-33.15Q10.15-33.15 9-32.1 7.85-31.05 7.85-28.75L7.85-28.75 7.85-20.05 24.3-19.8 24.3-16.75 7.85-16.5 7.85-7.85Q7.85-6 8.47-5.05 9.1-4.1 10.15-3.8 11.2-3.5 12.3-3.5L12.3-3.5 26.5-3.5 26.5-0.3Q24.2-0.15 21.68-0.05 19.15 0.05 16.63 0.1 14.1 0.15 11.65 0.2ZM47.75 0L33.2 0 33.2-36.8 47.75-36.8Q51.1-36.8 53.4-35.58 55.7-34.35 57.12-32 58.55-29.65 59.2-26.23 59.85-22.8 59.85-18.4L59.85-18.4Q59.85-12.6 58.5-8.5 57.15-4.4 54.45-2.2 51.75 0 47.75 0L47.75 0ZM37.2-33.2L37.2-3.55 47.45-3.55Q50.4-3.55 52.25-5.38 54.1-7.2 55-10.53 55.9-13.85 55.9-18.4L55.9-18.4Q55.9-22.5 55.4-25.33 54.9-28.15 53.87-29.9 52.85-31.65 51.25-32.43 49.65-33.2 47.45-33.2L47.45-33.2 37.2-33.2Z" opacity="1" transform="matrix(1,0,0,1,0,0)" fill="#093d65" class="undefined-text-0" data-fill-palette-color="primary" id="text-0"></path></svg></g></svg></g></svg></g></svg></g></svg></g></svg></g></svg></g><defs></defs></svg><rect width="320" height="360" fill="none" stroke="none" visibility="hidden"></rect></g></svg></g></svg>